<svg width="14" height="16" viewBox="0 0 14 16" fill="none" xmlns="http://www.w3.org/2000/svg">
<path d="M9.32031 5.41846V3.90674C9.32031 3.27393 9.08594 2.73486 8.61719 2.28955C8.17188 1.8208 7.63281 1.58643 7 1.58643C6.36719 1.58643 5.81641 1.8208 5.34766 2.28955C4.90234 2.73486 4.67969 3.27393 4.67969 3.90674V5.41846H9.32031ZM5.94531 11.7114C6.25 12.0161 6.60156 12.1685 7 12.1685C7.39844 12.1685 7.75 12.0161 8.05469 11.7114C8.35938 11.4067 8.51172 11.0552 8.51172 10.6567C8.51172 10.2583 8.35938 9.90674 8.05469 9.60205C7.75 9.29736 7.39844 9.14502 7 9.14502C6.60156 9.14502 6.25 9.29736 5.94531 9.60205C5.64062 9.90674 5.48828 10.2583 5.48828 10.6567C5.48828 11.0552 5.64062 11.4067 5.94531 11.7114ZM11.5 5.41846C11.8984 5.41846 12.25 5.5708 12.5547 5.87549C12.8594 6.15674 13.0117 6.49658 13.0117 6.89502V14.4185C13.0117 14.8169 12.8594 15.1685 12.5547 15.4731C12.25 15.7544 11.8984 15.895 11.5 15.895H2.5C2.10156 15.895 1.75 15.7544 1.44531 15.4731C1.14062 15.1685 0.988281 14.8169 0.988281 14.4185V6.89502C0.988281 6.49658 1.14062 6.15674 1.44531 5.87549C1.75 5.5708 2.10156 5.41846 2.5 5.41846H3.23828V3.90674C3.23828 2.87549 3.60156 1.99658 4.32812 1.27002C5.07812 0.52002 5.96875 0.14502 7 0.14502C8.03125 0.14502 8.91016 0.52002 9.63672 1.27002C10.3867 1.99658 10.7617 2.87549 10.7617 3.90674V5.41846H11.5Z" fill="#1C1B18"/>
</svg>
