<svg width="18" height="12" viewBox="0 0 18 12" fill="none" xmlns="http://www.w3.org/2000/svg">
<path d="M7.41797 4.41797C7.86328 3.97266 8.39062 3.75 9 3.75C9.60938 3.75 10.1367 3.97266 10.582 4.41797C11.0273 4.86328 11.25 5.39062 11.25 6C11.25 6.60938 11.0273 7.13672 10.582 7.58203C10.1367 8.02734 9.60938 8.25 9 8.25C8.39062 8.25 7.86328 8.02734 7.41797 7.58203C6.97266 7.13672 6.75 6.60938 6.75 6C6.75 5.39062 6.97266 4.86328 7.41797 4.41797ZM6.32812 8.67188C7.07812 9.39844 7.96875 9.76172 9 9.76172C10.0312 9.76172 10.9102 9.39844 11.6367 8.67188C12.3867 7.92188 12.7617 7.03125 12.7617 6C12.7617 4.96875 12.3867 4.08984 11.6367 3.36328C10.9102 2.61328 10.0312 2.23828 9 2.23828C7.96875 2.23828 7.07812 2.61328 6.32812 3.36328C5.60156 4.08984 5.23828 4.96875 5.23828 6C5.23828 7.03125 5.60156 7.92188 6.32812 8.67188ZM3.97266 1.92188C5.47266 0.890625 7.14844 0.375 9 0.375C10.8516 0.375 12.5273 0.890625 14.0273 1.92188C15.5273 2.95312 16.6055 4.3125 17.2617 6C16.6055 7.6875 15.5273 9.04688 14.0273 10.0781C12.5273 11.1094 10.8516 11.625 9 11.625C7.14844 11.625 5.47266 11.1094 3.97266 10.0781C2.47266 9.04688 1.39453 7.6875 0.738281 6C1.39453 4.3125 2.47266 2.95312 3.97266 1.92188Z" fill="#1C1B18"/>
</svg>
